<?xml version="1.0" encoding="UTF-8"?>
<svg width="24px" height="24px" viewBox="0 0 24 24" version="1.1" xmlns="http://www.w3.org/2000/svg" xmlns:xlink="http://www.w3.org/1999/xlink">
    <!-- Generator: Sketch 61.2 (89653) - https://sketch.com -->
    <title>Mobile/Light_theme/ICON/01_ACTION_BAR/Bottom_bar_share</title>
    <desc>Created with Sketch.</desc>
    <g id="Mobile/Light_theme/ICON/01_ACTION_BAR/Bottom_bar_share" stroke="none" stroke-width="1" fill="none" fill-rule="evenodd">
        <path d="M17.1502591,15.3456036 C16.4593264,15.3456036 15.8261658,15.5897707 15.3323834,15.9958592 L9.62046632,12.6464003 C9.66968912,12.4384727 9.6984456,12.2228346 9.6984456,12 C9.6984456,11.7774224 9.66994819,11.5617843 9.62046632,11.3541137 L15.3316062,8.00414085 C15.8253886,8.4099723 16.4590674,8.65439644 17.1502591,8.65439644 C18.7240933,8.65439644 20,7.38858269 20,5.82874033 C20,4.26581375 18.7240933,3 17.1502591,3 C15.5764249,3 14.3,4.26581375 14.3,5.82874033 C14.3,6.05106091 14.3284974,6.266185 14.3774611,6.47359854 L8.66658031,9.82382843 C8.17331606,9.41773995 7.53989637,9.17331582 6.8492228,9.17331582 C5.2753886,9.17331582 4,10.4396436 4,12 C4,13.5598424 5.2753886,14.8277123 6.8492228,14.8277123 C7.53989637,14.8277123 8.17357513,14.5830311 8.66683938,14.1769426 L14.3782383,17.5258874 C14.3287565,17.734072 14.3002591,17.9497101 14.3002591,18.1725448 C14.3002591,19.7347003 15.5766839,21 17.1502591,21 C18.7238342,21 19.9997409,19.7347003 19.9997409,18.1725448 C19.9997409,16.6119313 18.7238342,15.3456036 17.1502591,15.3456036" id="Fill-1" fill="#454545"></path>
    </g>
</svg>