<?xml version="1.0" encoding="UTF-8"?>
<svg width="24px" height="24px" viewBox="0 0 24 24" version="1.1" xmlns="http://www.w3.org/2000/svg" xmlns:xlink="http://www.w3.org/1999/xlink">
    <!-- Generator: Sketch 61.2 (89653) - https://sketch.com -->
    <title>Mobile/Light_theme/ICON/01_ACTION_BAR/Bottom_bar_delete</title>
    <desc>Created with Sketch.</desc>
    <g id="Mobile/Light_theme/ICON/01_ACTION_BAR/Bottom_bar_delete" stroke="none" stroke-width="1" fill="none" fill-rule="evenodd">
        <path d="M13.5,18.5 L15.5,18.5 L15.5,9.5 L13.5,9.5 L13.5,18.5 Z M8.5,18.5 L10.5,18.5 L10.5,9.5 L8.5,9.5 L8.5,18.5 Z M9.5,6.5 L14.5,6.5 L14.5,4.5 L9.5,4.5 L9.5,6.5 Z M16.1846154,6.09459459 L16.1846154,3.91216216 C16.1846154,3.13341892 15.5391385,2.5 14.7461538,2.5 L9.25384615,2.5 C8.46086154,2.5 7.81538462,3.13341892 7.81538462,3.91216216 L7.81538462,6.09459459 L3.5,6.09459459 L3.5,7.89189189 L5.58550769,7.89189189 L5.62630769,7.89189189 L6.41092308,19.9594595 C6.41092308,20.8103514 7.11341538,21.5 7.98015385,21.5 L16.0878462,21.5 C16.9543231,21.5 17.6570769,20.8103514 17.6570769,19.9594595 L18.4416923,7.89189189 L20.5,7.89189189 L20.5,6.09459459 L16.1846154,6.09459459 Z" id="Fill-1" fill="#454545"></path>
    </g>
</svg>